<?xml version="1.0" encoding="UTF-8" standalone="no"?>
<!-- Created with Inkscape (http://www.inkscape.org/) -->

<svg
   width="50"
   height="50"
   viewBox="0 0 13.229166 13.229167"
   version="1.1"
   id="svg5"
   inkscape:version="1.3 (0e150ed6c4, 2023-07-21)"
   sodipodi:docname="marble-1.svg"
   xmlns:inkscape="http://www.inkscape.org/namespaces/inkscape"
   xmlns:sodipodi="http://sodipodi.sourceforge.net/DTD/sodipodi-0.dtd"
   xmlns="http://www.w3.org/2000/svg"
   xmlns:svg="http://www.w3.org/2000/svg">
  <sodipodi:namedview
     id="namedview7"
     pagecolor="#505050"
     bordercolor="#eeeeee"
     borderopacity="1"
     inkscape:showpageshadow="0"
     inkscape:pageopacity="0"
     inkscape:pagecheckerboard="0"
     inkscape:deskcolor="#505050"
     inkscape:document-units="px"
     showgrid="false"
     inkscape:zoom="10.02"
     inkscape:cx="24.9501"
     inkscape:cy="25"
     inkscape:window-width="1366"
     inkscape:window-height="697"
     inkscape:window-x="-8"
     inkscape:window-y="-8"
     inkscape:window-maximized="1"
     inkscape:current-layer="layer1" />
  <defs
     id="defs2">
    <clipPath
       clipPathUnits="userSpaceOnUse"
       id="clipPath952">
      <path
         d="m 69.894,257 c 0,-87.838 71.635,-159.473 159.473,-159.473 v 0 c 87.834,0 159.473,71.635 159.473,159.473 v 0 c 0,87.834 -71.639,159.473 -159.473,159.473 v 0 C 141.529,416.473 69.894,344.834 69.894,257"
         id="path950" />
    </clipPath>
    <radialGradient
       fx="0"
       fy="0"
       cx="0"
       cy="0"
       r="1"
       gradientUnits="userSpaceOnUse"
       gradientTransform="matrix(217.07112,0,0,-217.07112,238.93555,260.18945)"
       spreadMethod="pad"
       id="radialGradient964">
      <stop
         style="stop-color:#df161e;stop-opacity:1;"
         offset="0"
         id="stop958" />
      <stop
         style="stop-color:#df161e;stop-opacity:1;"
         offset="0.54596841"
         id="stop960" />
      <stop
         style="stop-opacity:1;stop-color:#000000"
         offset="1"
         id="stop962" />
    </radialGradient>
    <clipPath
       clipPathUnits="userSpaceOnUse"
       id="clipPath974">
      <path
         d="M 0,485.035 H 648.988 V 0 H 0 Z"
         id="path972" />
    </clipPath>
    <clipPath
       clipPathUnits="userSpaceOnUse"
       id="clipPath982">
      <path
         d="m 112.003,411.236 h 232.45 V 263.851 h -232.45 z"
         id="path980" />
    </clipPath>
    <clipPath
       clipPathUnits="userSpaceOnUse"
       id="clipPath998">
      <path
         d="m 134.834,387.71 h 37.563 v -32.227 h -37.563 z"
         id="path996" />
    </clipPath>
  </defs>
  <g
     inkscape:label="Lager 1"
     inkscape:groupmode="layer"
     id="layer1">
    <g
       id="g946"
       transform="matrix(0.04060587,0,0,-0.04060587,-2.6990637,17.050292)">
      <g
         id="g948"
         clip-path="url(#clipPath952)">
        <g
           id="g954">
          <g
             id="g956">
            <path
               d="m 69.894,257 c 0,-87.838 71.635,-159.473 159.473,-159.473 v 0 c 87.834,0 159.473,71.635 159.473,159.473 v 0 c 0,87.834 -71.639,159.473 -159.473,159.473 v 0 C 141.529,416.473 69.894,344.834 69.894,257"
               style="fill:url(#radialGradient964);stroke:none"
               id="path966" />
          </g>
        </g>
      </g>
    </g>
    <g
       id="g968"
       transform="matrix(0.04060587,0,0,-0.04060587,-2.6990637,17.050292)">
      <g
         id="g970"
         clip-path="url(#clipPath974)">
        <g
           id="g976">
          <g
             id="g978" />
          <g
             id="g990">
            <g
               clip-path="url(#clipPath982)"
               opacity="0.110001"
               id="g988">
              <g
                 transform="translate(228.2256,411.2358)"
                 id="g986">
                <path
                   d="m 0,0 c 64.191,0 116.228,-32.994 116.228,-73.693 0,-40.698 -52.037,-73.692 -116.228,-73.692 -64.186,0 -116.222,32.994 -116.222,73.692 C -116.222,-32.994 -64.186,0 0,0"
                   style="fill:#ffffff;fill-opacity:1;fill-rule:evenodd;stroke:none"
                   id="path984" />
              </g>
            </g>
          </g>
        </g>
        <g
           id="g992">
          <g
             id="g994" />
          <g
             id="g1006">
            <g
               clip-path="url(#clipPath998)"
               opacity="0.669998"
               id="g1004">
              <g
                 transform="translate(146.854,380.354)"
                 id="g1002">
                <path
                   d="M 0,0 C 9.672,7.471 20.543,9.603 24.277,4.765 28.014,-0.073 23.197,-10.049 13.524,-17.517 3.849,-24.984 -7.021,-27.119 -10.755,-22.279 -14.49,-17.444 -9.675,-7.471 0,0"
                   style="fill:#ffffff;fill-opacity:1;fill-rule:evenodd;stroke:none"
                   id="path1000" />
              </g>
            </g>
          </g>
        </g>
      </g>
    </g>
    <g
       aria-label="1"
       id="text1566"
       style="font-size:6.90725px;fill:#999999;stroke-width:0.259021">
      <path
         d="M 7.5252076,8.8379421 H 6.9181251 V 4.9694774 Q 6.6989009,5.1785836 6.3413967,5.3876898 5.9872653,5.596796 5.7039601,5.7013491 V 5.1145027 Q 6.2132349,4.8750424 6.5943478,4.5344016 6.9754607,4.1937609 7.1339767,3.8733562 h 0.3912309 z"
         style="font-family:Arial;-inkscape-font-specification:Arial;fill:#f2f2f2"
         id="path2311" />
    </g>
  </g>
</svg>
